<svg version="1.1" xmlns="http://www.w3.org/2000/svg" viewBox="0 0 1481.456732685877 1085.3530049726296" width="2962.913465371754" height="2170.706009945259">
  <!-- svg-source:excalidraw -->
  
  <defs>
    <style class="style-fonts">
      @font-face {
        font-family: "Virgil";
        src: url("https://excalidraw.com/Virgil.woff2");
      }
      @font-face {
        font-family: "Cascadia";
        src: url("https://excalidraw.com/Cascadia.woff2");
      }
    </style>
    
  </defs>
  <rect x="0" y="0" width="1481.456732685877" height="1085.3530049726296" fill="#ffffff"></rect><g stroke-linecap="round" transform="translate(801.2335184001627 594.2815764012008) rotate(0 335.1116071428571 240.53571428571433)"><path d="M0.35 0.27 C241.26 2.58, 483.38 1.34, 670.68 -0.61 M-0.33 0.17 C256.1 2.18, 512.82 2.43, 670.02 -0.23 M669.37 -0.03 C669.4 170.73, 669.43 341.03, 670.06 480.92 M670.46 -0.31 C671.59 121.88, 671.41 242.75, 669.83 481.14 M670.19 480.77 C430.02 478.48, 190.35 478.92, -0.23 480.52 M670.39 481.47 C455.98 481.96, 241.86 481.9, -0.02 481.13 M-0.7 481.11 C-1.71 371.16, -1.75 259.6, -0.11 0.04 M0.05 481.21 C-0.59 379.75, -0.96 278.9, 0.32 -0.13" stroke="#1e1e1e" stroke-width="4" fill="none"></path></g><g stroke-linecap="round" transform="translate(24.28529946529784 92.30803720226697) rotate(0 141.96902354579572 88.12975502278516)"><path d="M0 0 C83.02 0, 166.03 0, 283.94 0 M0 0 C94.41 0, 188.83 0, 283.94 0 M283.94 0 C283.94 51.13, 283.94 102.27, 283.94 176.26 M283.94 0 C283.94 64.31, 283.94 128.63, 283.94 176.26 M283.94 176.26 C210.58 176.26, 137.22 176.26, 0 176.26 M283.94 176.26 C214.55 176.26, 145.16 176.26, 0 176.26 M0 176.26 C0 107.48, 0 38.69, 0 0 M0 176.26 C0 121.58, 0 66.91, 0 0" stroke="#1971c2" stroke-width="1" fill="none"></path></g><g stroke-linecap="round" transform="translate(35.18134190447836 106.40879800591267) rotate(0 131.07298110661498 75.63135340137194)"><path d="M0 0 C75.6 0, 151.19 0, 262.15 0 M0 0 C87.56 0, 175.11 0, 262.15 0 M262.15 0 C262.15 39.37, 262.15 78.74, 262.15 151.26 M262.15 0 C262.15 43.12, 262.15 86.24, 262.15 151.26 M262.15 151.26 C205.86 151.26, 149.57 151.26, 0 151.26 M262.15 151.26 C198.45 151.26, 134.76 151.26, 0 151.26 M0 151.26 C0 107.09, 0 62.92, 0 0 M0 151.26 C0 95.54, 0 39.82, 0 0" stroke="#1971c2" stroke-width="1" fill="none"></path></g><g stroke-linecap="round"><g transform="translate(12.816498850340167 269.20849092073115) rotate(0 153.79238874575782 0)"><path d="M0 0 C65.62 0, 131.24 0, 307.58 0 M0 0 C93.72 0, 187.45 0, 307.58 0" stroke="#1971c2" stroke-width="1" fill="none"></path></g></g><mask></mask><g stroke-linecap="round"><g transform="translate(21.158123203402738 282.9474087570785) rotate(0 146.6329115485491 0)"><path d="M0 0 C107.25 0, 214.49 0, 293.27 0 M0 0 C70.78 0, 141.56 0, 293.27 0" stroke="#1971c2" stroke-width="1" fill="none"></path></g></g><mask></mask><g stroke-linecap="round"><g transform="translate(314.5556806809295 283.3990694899768) rotate(0 3.123522511394299 -6.928601103973165)"><path d="M0 0 C0.93 -0.84, 4.57 -2.7, 5.6 -5.01 C6.63 -7.32, 6.09 -12.38, 6.19 -13.86 M0 0 C0.93 -0.84, 4.57 -2.7, 5.6 -5.01 C6.63 -7.32, 6.09 -12.38, 6.19 -13.86" stroke="#1971c2" stroke-width="1" fill="none"></path></g></g><mask></mask><g stroke-linecap="round"><g transform="translate(20.90092750828012 283.3990694899768) rotate(0 -3.5380090743692563 -6.781184059207817)"><path d="M0 0 C-0.9 -0.45, -4.2 -0.45, -5.38 -2.71 C-6.56 -4.97, -6.79 -11.75, -7.08 -13.56 M0 0 C-0.9 -0.45, -4.2 -0.45, -5.38 -2.71 C-6.56 -4.97, -6.79 -11.75, -7.08 -13.56" stroke="#1971c2" stroke-width="1" fill="none"></path></g></g><mask></mask><g stroke-linecap="round" transform="translate(144.61111724836496 269.37263228740005) rotate(0 21.05957782362657 0.9719805149366039)"><path d="M0 0 C14.26 0, 28.53 0, 42.12 0 M0 0 C16.44 0, 32.87 0, 42.12 0 M42.12 0 C42.12 0.62, 42.12 1.23, 42.12 1.94 M42.12 0 C42.12 0.73, 42.12 1.46, 42.12 1.94 M42.12 1.94 C30.95 1.94, 19.77 1.94, 0 1.94 M42.12 1.94 C32.38 1.94, 22.65 1.94, 0 1.94 M0 1.94 C0 1.22, 0 0.5, 0 0 M0 1.94 C0 1.33, 0 0.72, 0 0" stroke="#1971c2" stroke-width="1" fill="none"></path></g><g transform="translate(108.12155178616172 306.74027209612234) rotate(0 61.86597442626953 17.5)"><text x="0" y="0" font-family="Virgil, Segoe UI Emoji" font-size="28px" fill="#1971c2" text-anchor="start" style="white-space: pre;" direction="ltr" dominant-baseline="text-before-edge">Attacker</text></g><g stroke-linecap="round"><g transform="translate(417.28025166096177 156.5165123726557) rotate(0 144.21409634238637 1.3811208291920138)"><path d="M-0.44 0.16 C90.47 -0.1, 182.7 0.32, 288.87 2.67 M-0.3 0.26 C87.33 1.83, 175.64 2.07, 288.05 2.62" stroke="#2f9e44" stroke-width="4" fill="none"></path></g><g transform="translate(417.28025166096177 156.5165123726557) rotate(0 144.21409634238637 1.3811208291920138)"><path d="M27.21 -9.76 C18.61 -6.88, 11.79 -4.29, 0 0.04 M27.39 -9.63 C18.66 -6.31, 10.81 -4.03, -1.09 -0.04" stroke="#2f9e44" stroke-width="4" fill="none"></path></g><g transform="translate(417.28025166096177 156.5165123726557) rotate(0 144.21409634238637 1.3811208291920138)"><path d="M27.12 10.76 C18.66 7.19, 11.88 3.33, 0 0.04 M27.3 10.89 C18.56 7.97, 10.74 4.01, -1.09 -0.04" stroke="#2f9e44" stroke-width="4" fill="none"></path></g><g transform="translate(417.28025166096177 156.5165123726557) rotate(0 144.21409634238637 1.3811208291920138)"><path d="M259.23 12.95 C268.49 9.25, 279.43 5.48, 288.49 2.49 M259.41 13.09 C267.82 10.38, 277.15 6.5, 287.41 2.42" stroke="#2f9e44" stroke-width="4" fill="none"></path></g><g transform="translate(417.28025166096177 156.5165123726557) rotate(0 144.21409634238637 1.3811208291920138)"><path d="M259.33 -7.57 C268.44 -4.82, 279.34 -2.15, 288.49 2.49 M259.51 -7.43 C267.92 -3.9, 277.22 -1.54, 287.41 2.42" stroke="#2f9e44" stroke-width="4" fill="none"></path></g></g><mask></mask><g stroke-linecap="round"><g transform="translate(825.7226543470222 85.41210288600871) rotate(0 312.0480192716401 0.7968258366747136)"><path d="M-1.03 -0.72 C103.29 -0.29, 520.72 1.87, 625.12 2.31 M0.64 1.52 C104.86 1.66, 520.15 1.06, 624.16 0.81" stroke="#000000" stroke-width="1" fill="none"></path></g></g><mask></mask><g stroke-linecap="round" transform="translate(845.8004226617152 39.27983933863413) rotate(0 12.24326830004145 12.063677739391721)"><path d="M14.12 -0.8 C16.52 -0.56, 19.24 2.19, 21.04 4.18 C22.84 6.18, 24.56 8.73, 24.93 11.15 C25.29 13.57, 24.76 16.76, 23.22 18.72 C21.69 20.69, 18.52 22.29, 15.72 22.94 C12.93 23.59, 8.98 23.44, 6.45 22.62 C3.93 21.81, 1.49 20.42, 0.55 18.05 C-0.39 15.68, 0.1 11.06, 0.8 8.4 C1.5 5.73, 2.25 3.27, 4.74 2.06 C7.22 0.85, 13.54 0.98, 15.72 1.14 C17.91 1.3, 17.94 2.94, 17.85 3.03 M10.03 -0.29 C12.03 -0.68, 15.08 -0.47, 17.59 1.05 C20.11 2.57, 23.97 6.01, 25.12 8.83 C26.28 11.64, 25.81 15.42, 24.53 17.93 C23.25 20.45, 20.12 23.18, 17.45 23.91 C14.79 24.63, 10.84 23.02, 8.54 22.29 C6.25 21.56, 5.34 21.12, 3.68 19.51 C2.01 17.91, -1.44 15.24, -1.46 12.65 C-1.48 10.05, 1.68 6.11, 3.56 3.96 C5.43 1.82, 8.55 0.16, 9.81 -0.23 C11.06 -0.63, 10.79 1.37, 11.08 1.6" stroke="#000000" stroke-width="1" fill="none"></path></g><g stroke-linecap="round" transform="translate(881.0595647029752 39.27983933863413) rotate(0 12.24326830004145 12.063677739391721)"><path d="M9.81 0.87 C12.17 0.36, 16.02 0.43, 18.49 1.5 C20.95 2.56, 23.63 4.99, 24.59 7.25 C25.55 9.5, 25.33 12.56, 24.26 15.01 C23.19 17.46, 20.55 20.3, 18.16 21.96 C15.78 23.61, 12.4 25.34, 9.95 24.96 C7.51 24.57, 5.25 21.73, 3.5 19.64 C1.75 17.54, -0.3 14.81, -0.53 12.39 C-0.77 9.96, 0.07 7.01, 2.08 5.1 C4.09 3.19, 9.49 1.67, 11.54 0.9 C13.6 0.14, 14.31 0.31, 14.42 0.5 M6.12 -0.06 C8.7 -1.06, 14.14 -0.4, 17.06 0.71 C19.98 1.83, 22.47 4.29, 23.65 6.61 C24.83 8.94, 24.82 12.53, 24.16 14.67 C23.5 16.82, 21.39 17.84, 19.71 19.47 C18.02 21.09, 16.8 23.83, 14.07 24.42 C11.33 25.01, 5.57 24.57, 3.3 22.99 C1.03 21.4, 0.96 17.7, 0.46 14.9 C-0.04 12.1, -0.91 8.3, 0.3 6.18 C1.51 4.07, 6.41 3.06, 7.73 2.2 C9.04 1.33, 8.26 1.16, 8.2 0.99" stroke="#000000" stroke-width="1" fill="none"></path></g><g stroke-linecap="round" transform="translate(915.1110662812855 39.27983933863413) rotate(0 12.24326830004145 12.063677739391721)"><path d="M7.66 1.16 C10.01 -0.15, 14.01 -0.42, 16.52 0.13 C19.03 0.68, 21.49 2.32, 22.72 4.45 C23.94 6.57, 24.28 10.02, 23.87 12.89 C23.46 15.75, 21.96 19.84, 20.24 21.63 C18.52 23.41, 16.16 23.58, 13.55 23.61 C10.94 23.63, 6.86 23.14, 4.58 21.79 C2.3 20.45, 0.58 17.88, -0.14 15.55 C-0.85 13.21, -1.15 10.3, 0.3 7.76 C1.75 5.22, 6.74 1.39, 8.56 0.29 C10.39 -0.82, 11.19 1.04, 11.22 1.16 M11.9 0.24 C14.77 0.13, 18.03 1.43, 20 2.98 C21.98 4.54, 23.29 7.53, 23.74 9.59 C24.19 11.64, 23.48 13.04, 22.7 15.3 C21.92 17.56, 21.53 21.48, 19.08 23.13 C16.63 24.77, 10.73 25.77, 7.98 25.17 C5.24 24.57, 4.13 21.88, 2.62 19.54 C1.11 17.19, -1.21 13.51, -1.07 11.11 C-0.93 8.7, 1.4 6.97, 3.46 5.1 C5.53 3.24, 10.21 0.88, 11.32 -0.06 C12.43 -1, 10.05 -0.81, 10.13 -0.52" stroke="#000000" stroke-width="1" fill="none"></path></g><g stroke-linecap="round"><g transform="translate(804.3921567783138 229.95299364391542) rotate(0 332.03044430799685 3.0607169026253587)"><path d="M-1.02 0.11 C-0.69 -14.82, 1.13 -59.31, 1.49 -88.72 C1.85 -118.12, -0.16 -155.62, 1.16 -176.33 C2.47 -197.04, 1.63 -205.77, 9.38 -212.97 C17.13 -220.17, 14.67 -218.63, 47.66 -219.53 C80.64 -220.44, 144.51 -218.64, 207.29 -218.4 C270.06 -218.17, 355.49 -218.15, 424.32 -218.14 C493.14 -218.14, 581.57 -219.45, 620.25 -218.37 C658.92 -217.28, 649.06 -218.39, 656.39 -211.61 C663.71 -204.83, 663.08 -198.97, 664.22 -177.67 C665.36 -156.37, 663.64 -114.83, 663.21 -83.82 C662.78 -52.8, 661.9 -20.93, 661.65 8.41 C661.39 37.75, 661.62 62.83, 661.67 92.22 C661.71 121.61, 662.67 163.39, 661.89 184.75 C661.12 206.11, 663.45 213.72, 657.01 220.38 C650.57 227.04, 658.04 224.03, 623.25 224.72 C588.46 225.42, 518.35 225.06, 448.27 224.56 C378.2 224.06, 269.95 222.46, 202.8 221.7 C135.66 220.93, 78.14 220.59, 45.38 219.96 C12.61 219.34, 13.88 224.46, 6.22 217.96 C-1.44 211.46, 0.49 201.97, -0.58 180.97 C-1.64 159.96, -0.12 122.12, -0.17 91.92 C-0.22 61.71, -0.92 14.9, -0.87 -0.24 M0.64 -0.87 C0.92 -16.24, 0.96 -61.01, 0.92 -90.54 C0.89 -120.07, -0.98 -157.87, 0.44 -178.05 C1.86 -198.23, 1.28 -204.72, 9.43 -211.63 C17.58 -218.54, 16.17 -218.74, 49.34 -219.49 C82.52 -220.25, 146.39 -216.18, 208.48 -216.14 C270.57 -216.1, 352.88 -218.77, 421.9 -219.26 C490.91 -219.74, 583.78 -220.65, 622.57 -219.05 C661.37 -217.45, 647.54 -217, 654.66 -209.66 C661.78 -202.33, 664.32 -196.09, 665.29 -175.03 C666.25 -153.96, 661.29 -113.74, 660.44 -83.26 C659.59 -52.79, 660.46 -21.79, 660.18 7.84 C659.91 37.48, 658.69 65.14, 658.79 94.57 C658.9 123.99, 661.17 163.6, 660.83 184.41 C660.48 205.22, 663.36 212.47, 656.73 219.41 C650.11 226.35, 655.98 225.59, 621.1 226.04 C586.23 226.48, 517.42 222.67, 447.47 222.08 C377.52 221.49, 268.12 222.91, 201.43 222.5 C134.73 222.08, 80.29 220.62, 47.31 219.59 C14.34 218.56, 11.25 222.85, 3.59 216.31 C-4.07 209.77, 1.94 201.29, 1.37 180.35 C0.8 159.41, 0.64 120.93, 0.19 90.66 C-0.27 60.4, -1.01 13.76, -1.35 -1.24" stroke="#000000" stroke-width="1" fill="none"></path></g></g><mask></mask><g stroke-linecap="round"><g transform="translate(1200.9276174448066 33.81372333902789) rotate(0 2.462294584021379 14.282429622634083)"><path d="M0.73 0.58 C34.04 0.76, 161.05 0.14, 198.87 1.19 C236.68 2.24, 222.9 2.7, 227.59 6.87 C232.28 11.03, 231.78 22.56, 227.01 26.16 C222.24 29.77, 236.62 27.81, 198.98 28.48 C161.33 29.15, 65.15 30.18, 1.14 30.19 C-62.87 30.19, -148.21 28.79, -185.07 28.52 C-221.92 28.24, -213.97 32.3, -219.99 28.54 C-226.01 24.77, -226.04 10.81, -221.19 5.92 C-216.33 1.02, -227.71 0.2, -190.86 -0.83 C-154.01 -1.86, -32.08 -0.25, -0.1 -0.26 M-0.35 -0.17 C32.9 -0.3, 160.14 -1.13, 197.97 -0.31 C235.8 0.51, 221.83 0.22, 226.63 4.76 C231.43 9.3, 231.04 22.96, 226.76 26.92 C222.48 30.87, 238.83 28.1, 200.95 28.51 C163.07 28.92, 63.77 29.05, -0.51 29.38 C-64.79 29.71, -147.97 30.74, -184.73 30.49 C-221.49 30.24, -214.77 31.68, -221.07 27.86 C-227.38 24.05, -227.21 12.55, -222.56 7.62 C-217.91 2.7, -230.3 -0.54, -193.18 -1.71 C-156.06 -2.89, -32.06 0, 0.17 0.58" stroke="#000000" stroke-width="1" fill="none"></path></g></g><mask></mask><g transform="translate(1036.7097214290195 136.65098638183542) rotate(0 113.56794738769531 17.5)"><text x="0" y="0" font-family="Virgil, Segoe UI Emoji" font-size="28px" fill="#1e1e1e" text-anchor="start" style="white-space: pre;" direction="ltr" dominant-baseline="text-before-edge">Demo Application</text></g><g stroke-linecap="round"><g transform="translate(944.0579058067424 851.6137721555618) rotate(0 206.68728500764382 19.53514364582759)"><path d="M0.27 1.12 C0.51 6.57, 0.23 23.42, 1.47 31.54 C2.71 39.66, 0.38 46.64, 7.71 49.83 C15.04 53.02, 15.43 50.09, 45.43 50.7 C75.43 51.31, 137.11 53.16, 187.72 53.48 C238.32 53.79, 314.76 52.88, 349.07 52.6 C383.38 52.33, 383.86 52.52, 393.59 51.84 C403.33 51.16, 404.52 51.48, 407.49 48.54 C410.46 45.6, 410.49 40.6, 411.43 34.21 C412.36 27.82, 413.76 16.32, 413.13 10.18 C412.5 4.03, 410.97 0.72, 407.64 -2.66 C404.32 -6.03, 403.04 -8.4, 393.18 -10.08 C383.33 -11.76, 382.92 -12.36, 348.51 -12.73 C314.11 -13.11, 237.69 -12, 186.77 -12.34 C135.84 -12.67, 72.67 -14.89, 42.96 -14.73 C13.24 -14.58, 15.78 -13.76, 8.49 -11.42 C1.19 -9.07, 0.49 -2.45, -0.82 -0.65 M-1.05 0.66 C-0.93 6.32, -0.61 24.04, 0.75 32.48 C2.11 40.92, -0.38 48.16, 7.12 51.3 C14.62 54.43, 15.36 51.39, 45.74 51.3 C76.11 51.22, 139.17 50.74, 189.39 50.79 C239.61 50.84, 313.42 51.11, 347.05 51.61 C380.67 52.1, 381.17 54.21, 391.14 53.74 C401.12 53.28, 403.27 51.79, 406.91 48.82 C410.56 45.85, 411.83 41.92, 413.01 35.92 C414.2 29.92, 414.92 19.08, 414.02 12.83 C413.12 6.58, 411.29 2.26, 407.61 -1.59 C403.93 -5.44, 401.75 -8.22, 391.94 -10.26 C382.12 -12.29, 383.03 -13.47, 348.7 -13.79 C314.38 -14.11, 236.81 -12.45, 185.97 -12.18 C135.14 -11.91, 73.07 -12.52, 43.7 -12.17 C14.33 -11.82, 16.82 -12.06, 9.73 -10.07 C2.65 -8.08, 2.83 -1.83, 1.16 -0.24" stroke="#000000" stroke-width="1" fill="none"></path></g></g><mask></mask><g stroke-linecap="round"><g transform="translate(967.85998553896 852.5164756537641) rotate(0 110.04868438372807 18.30291834158436)"><path d="M0.42 -1.14 C30.27 -1.24, 142.56 -0.29, 179.38 0.53 C216.19 1.36, 213.3 0.4, 221.32 3.8 C229.34 7.2, 227.59 15.62, 227.51 20.94 C227.42 26.26, 227.99 33.3, 220.81 35.74 C213.63 38.17, 214.07 35.35, 184.41 35.55 C154.75 35.76, 74.12 37.66, 42.86 36.99 C11.6 36.31, 4.93 36.6, -3.14 31.48 C-11.22 26.36, -6.01 11.47, -5.59 6.25 C-5.18 1.03, -1.67 1.12, -0.68 0.15 M-0.82 0.87 C28.88 0.91, 141.7 -2.07, 178.6 -1.44 C215.51 -0.82, 212.5 1.21, 220.61 4.62 C228.71 8.02, 227.41 13.71, 227.24 18.97 C227.06 24.23, 226.98 33.04, 219.56 36.17 C212.14 39.3, 212.61 37.75, 182.73 37.76 C152.85 37.78, 70.9 36.85, 40.29 36.26 C9.69 35.67, 7 38.95, -0.91 34.24 C-8.82 29.52, -7.25 13.71, -7.14 7.97 C-7.04 2.23, -1.59 0.83, -0.27 -0.22" stroke="#000000" stroke-width="1" fill="none"></path></g></g><mask></mask><g stroke-linecap="round"><g transform="translate(1259.3014643912736 860.9504425854601) rotate(0 18.96191204580873 9.276702181364271)"><path d="M0.33 0.28 C1.53 -1.17, 2.11 -8.96, 7.61 -9.84 C13.12 -10.73, 28.4 -8.52, 33.37 -5.02 C38.34 -1.53, 37.2 6.07, 37.46 11.14 C37.72 16.2, 39.79 22.52, 34.94 25.36 C30.08 28.21, 14.19 29.23, 8.35 28.2 C2.51 27.17, 1.3 23.02, -0.09 19.18 C-1.49 15.35, 0.09 8.37, -0.01 5.2 C-0.1 2.03, -0.73 0.94, -0.68 0.15 M-0.96 -0.61 C0.06 -1.84, 0.6 -7.78, 6.72 -8.81 C12.84 -9.83, 30.55 -10.29, 35.75 -6.78 C40.95 -3.26, 38.21 6.93, 37.93 12.28 C37.64 17.64, 39.26 22.76, 34.03 25.34 C28.8 27.92, 12.2 28.52, 6.55 27.78 C0.91 27.05, 1.39 24.24, 0.15 20.93 C-1.1 17.63, -1.04 11.64, -0.91 7.96 C-0.77 4.28, 0.59 0.14, 0.95 -1.15" stroke="#000000" stroke-width="1" fill="none"></path></g></g><mask></mask><g stroke-linecap="round"><g transform="translate(1306.4330478041725 860.8928979036831) rotate(0 18.66998715724958 10.704361794815782)"><path d="M0.1 -0.95 C0.67 -2.06, -2.07 -5.52, 3.71 -6.37 C9.49 -7.22, 29.04 -8.83, 34.78 -6.06 C40.51 -3.29, 38.19 4.47, 38.12 10.27 C38.05 16.07, 39.42 26.07, 34.36 28.74 C29.3 31.41, 13.36 27.59, 7.78 26.29 C2.21 24.99, 2.3 23.62, 0.9 20.95 C-0.49 18.28, -0.47 13.7, -0.57 10.28 C-0.67 6.87, 0.24 2.25, 0.32 0.46 M-1.3 1.16 C-0.4 -0.28, -0.01 -6.93, 5.91 -7.9 C11.83 -8.88, 29.34 -7.84, 34.23 -4.7 C39.13 -1.55, 35.42 5.83, 35.27 10.96 C35.12 16.1, 37.75 23.19, 33.34 26.09 C28.93 28.99, 14.07 28.91, 8.79 28.35 C3.52 27.78, 2.85 25.76, 1.67 22.7 C0.49 19.65, 2.19 13.92, 1.71 10.02 C1.23 6.13, -1.01 1.18, -1.19 -0.67" stroke="#000000" stroke-width="1" fill="none"></path></g></g><mask></mask><g stroke-linecap="round"><g transform="translate(944.0579058067424 920.0753106171004) rotate(0 206.19683567180766 19.278286302940387)"><path d="M-0.99 1.12 C-0.76 6.74, -0.1 24.82, 1.48 32.76 C3.05 40.7, 1.01 45.42, 8.46 48.76 C15.91 52.11, 16.28 52.42, 46.19 52.84 C76.1 53.26, 137.49 51.51, 187.94 51.28 C238.39 51.05, 314.9 51.21, 348.88 51.46 C382.87 51.71, 382.15 53.39, 391.83 52.78 C401.51 52.18, 403.57 50.81, 406.95 47.82 C410.33 44.83, 411.15 40.83, 412.12 34.85 C413.08 28.86, 413.22 18.36, 412.72 11.91 C412.22 5.46, 412.35 -0.13, 409.11 -3.84 C405.87 -7.55, 403.49 -8.84, 393.27 -10.36 C383.04 -11.88, 382.05 -12.41, 347.77 -12.95 C313.49 -13.48, 238.42 -13.4, 187.61 -13.59 C136.79 -13.77, 72.86 -14.35, 42.9 -14.07 C12.93 -13.78, 15.14 -14.27, 7.82 -11.87 C0.5 -9.48, 0.15 -1.64, -1 0.31 M0.7 0.66 C0.8 6.57, -0.51 26.17, 0.75 34.34 C2.01 42.51, 0.58 46.91, 8.26 49.67 C15.95 52.43, 16.64 50.66, 46.89 50.91 C77.13 51.15, 139.14 50.67, 189.72 51.11 C240.31 51.55, 316.69 53.45, 350.42 53.52 C384.15 53.59, 382.84 52.48, 392.12 51.52 C401.4 50.55, 403.04 50.16, 406.09 47.72 C409.14 45.29, 409.19 42.88, 410.41 36.9 C411.62 30.91, 413.49 18.52, 413.39 11.81 C413.3 5.09, 413.4 0.36, 409.85 -3.39 C406.29 -7.14, 402.45 -8.9, 392.07 -10.69 C381.69 -12.48, 381.71 -13.54, 347.57 -14.11 C313.43 -14.68, 237.91 -13.97, 187.25 -14.09 C136.59 -14.2, 73.37 -15.37, 43.61 -14.82 C13.86 -14.26, 15.84 -13.44, 8.72 -10.76 C1.59 -8.09, 2.31 -0.59, 0.88 1.22" stroke="#000000" stroke-width="1" fill="none"></path></g></g><mask></mask><g stroke-linecap="round"><g transform="translate(967.85998553896 920.9780141153025) rotate(0 110.34242697713944 17.865346780712343)"><path d="M0.42 0.08 C30.61 -0.2, 143.19 -1.51, 180.13 -0.54 C217.07 0.44, 214.14 2.72, 222.07 5.94 C230.01 9.15, 227.97 13.97, 227.73 18.75 C227.48 23.52, 228.14 31.63, 220.62 34.59 C213.11 37.55, 212.36 36.21, 182.65 36.49 C152.93 36.77, 73.17 36.99, 42.32 36.27 C11.47 35.54, 5.6 36.83, -2.45 32.12 C-10.5 27.41, -6.54 13.51, -6 7.98 C-5.47 2.46, -0.28 0.27, 0.79 -1.03 M-0.81 -0.92 C29.39 -0.55, 142.65 -0.27, 179.75 0.59 C216.85 1.44, 213.79 1.1, 221.76 4.22 C229.73 7.33, 227.99 14.25, 227.57 19.29 C227.16 24.32, 226.59 31.71, 219.27 34.42 C211.96 37.13, 213.06 35.41, 183.7 35.53 C154.34 35.66, 74.33 35.83, 43.13 35.16 C11.93 34.5, 4.36 36.25, -3.51 31.55 C-11.39 26.85, -4.41 11.93, -4.11 6.95 C-3.81 1.96, -2.53 2.59, -1.69 1.64" stroke="#000000" stroke-width="1" fill="none"></path></g></g><mask></mask><g stroke-linecap="round"><g transform="translate(1259.3014643912736 929.4119810469984) rotate(0 18.623544973565572 9.29167213074902)"><path d="M1.08 -0.79 C2.41 -2.08, 2.95 -6.63, 8.37 -7.7 C13.79 -8.78, 28.77 -10.16, 33.59 -7.21 C38.41 -4.26, 37.34 4.41, 37.27 9.99 C37.2 15.58, 38.08 23.39, 33.17 26.3 C28.26 29.22, 13.24 28.56, 7.81 27.48 C2.38 26.4, 1.97 23.25, 0.6 19.82 C-0.77 16.4, -0.45 10.4, -0.42 6.93 C-0.38 3.45, 0.65 0.1, 0.79 -1.03 M0.19 1.42 C1.4 -0.19, 1.89 -7.89, 7.87 -9.21 C13.85 -10.52, 31.12 -9.75, 36.08 -6.46 C41.05 -3.17, 37.82 5, 37.64 10.54 C37.46 16.08, 40.32 24.08, 35.01 26.78 C29.69 29.47, 11.37 27.5, 5.73 26.69 C0.1 25.87, 2.41 25.2, 1.2 21.91 C-0.01 18.62, -1.26 10.47, -1.53 6.94 C-1.81 3.4, -0.96 1.9, -0.47 0.71" stroke="#000000" stroke-width="1" fill="none"></path></g></g><mask></mask><g stroke-linecap="round"><g transform="translate(1306.4330478041725 929.3544363652212) rotate(0 18.269702752885905 9.82486752176726)"><path d="M0.86 1.18 C1.33 -0.11, -1.69 -7.16, 3.93 -8.56 C9.56 -9.96, 29.19 -10.5, 34.59 -7.2 C39.99 -3.91, 36.48 5.34, 36.35 11.21 C36.23 17.08, 38.47 25.4, 33.82 28.02 C29.17 30.64, 14.03 27.82, 8.47 26.93 C2.92 26.04, 1.76 25.65, 0.49 22.68 C-0.77 19.71, 0.91 12.85, 0.9 9.1 C0.89 5.35, 0.69 1.81, 0.41 0.18 M-0.15 0.76 C0.62 -0.36, 0.56 -6.38, 6.24 -7.58 C11.93 -8.79, 28.95 -9.78, 33.95 -6.45 C38.95 -3.12, 36.48 6.55, 36.24 12.4 C36.01 18.25, 36.92 26.44, 32.52 28.65 C28.12 30.86, 15.09 26.83, 9.85 25.66 C4.6 24.5, 2.64 23.98, 1.04 21.68 C-0.55 19.39, 0.64 15.68, 0.29 11.88 C-0.06 8.08, -0.93 1.11, -1.05 -1.11" stroke="#000000" stroke-width="1" fill="none"></path></g></g><mask></mask><g stroke-linecap="round"><g transform="translate(944.0579058067424 986.9983875401771) rotate(0 207.03133976516915 19.510345592261388)"><path d="M-0.76 -1.07 C-0.69 4, 0.04 23.15, 1.29 31.61 C2.53 40.08, -0.69 46.28, 6.7 49.7 C14.09 53.12, 15.33 51.75, 45.65 52.12 C75.97 52.49, 138.16 51.75, 188.63 51.92 C239.1 52.1, 314.36 53.24, 348.47 53.19 C382.58 53.13, 383.54 52.54, 393.3 51.6 C403.06 50.66, 404.02 50.36, 407.03 47.54 C410.05 44.71, 410.29 40.78, 411.37 34.64 C412.46 28.49, 413.94 16.96, 413.55 10.66 C413.17 4.36, 412.55 0.4, 409.06 -3.17 C405.56 -6.75, 402.84 -9.35, 392.6 -10.82 C382.35 -12.29, 381.71 -11.6, 347.58 -11.99 C313.46 -12.38, 238.65 -12.86, 187.86 -13.18 C137.07 -13.49, 72.69 -14.05, 42.86 -13.89 C13.04 -13.73, 15.98 -14.61, 8.92 -12.21 C1.85 -9.8, 1.91 -1.53, 0.47 0.55 M1.04 0.98 C0.89 6.66, -0.29 24.24, 0.46 32.59 C1.22 40.95, -2.02 47.62, 5.58 51.1 C13.18 54.58, 15.81 53.3, 46.06 53.47 C76.32 53.63, 136.5 52.25, 187.12 52.09 C237.74 51.92, 315.86 52.28, 349.79 52.5 C383.72 52.71, 381.29 54.24, 390.7 53.37 C400.1 52.51, 402.52 50.09, 406.22 47.29 C409.93 44.49, 411.52 42.81, 412.93 36.57 C414.34 30.34, 415.2 16.39, 414.67 9.9 C414.14 3.41, 413.7 1.17, 409.76 -2.38 C405.82 -5.93, 401.46 -9.67, 391.05 -11.39 C380.64 -13.1, 381.19 -12.31, 347.29 -12.65 C313.39 -13, 238.26 -13.14, 187.64 -13.46 C137.02 -13.77, 73.71 -14.91, 43.55 -14.55 C13.4 -14.18, 14.08 -13.96, 6.73 -11.28 C-0.62 -8.59, 0.73 -0.42, -0.54 1.59" stroke="#000000" stroke-width="1" fill="none"></path></g></g><mask></mask><g stroke-linecap="round"><g transform="translate(967.85998553896 987.9010910383794) rotate(0 110.61783050224369 18.72931362811744)"><path d="M0.23 -1.07 C30.09 -0.82, 141.48 -0.64, 178.37 0.4 C215.25 1.45, 213.19 2.05, 221.53 5.22 C229.88 8.38, 228.64 14.2, 228.42 19.39 C228.2 24.57, 227.6 33.67, 220.21 36.32 C212.83 38.98, 213.75 35.37, 184.11 35.31 C154.48 35.25, 73.63 36.55, 42.41 35.98 C11.19 35.41, 4.73 36.78, -3.19 31.91 C-11.12 27.03, -5.82 12.11, -5.17 6.73 C-4.51 1.35, -0.09 0.8, 0.73 -0.36 M-1.1 0.99 C29.21 1.55, 143.72 1.67, 180.72 2.02 C217.73 2.38, 212.95 0.08, 220.94 3.12 C228.92 6.16, 229.01 14.61, 228.63 20.26 C228.25 25.92, 226.37 34.21, 218.65 37.06 C210.92 39.92, 211.51 37.78, 182.28 37.39 C153.05 37, 73.81 35.76, 43.26 34.73 C12.72 33.7, 7.3 35.57, -0.99 31.23 C-9.28 26.89, -6.36 14.07, -6.49 8.7 C-6.62 3.33, -2.85 0.35, -1.78 -1.01" stroke="#000000" stroke-width="1" fill="none"></path></g></g><mask></mask><g stroke-linecap="round"><g transform="translate(1259.3014643912736 996.3350579700754) rotate(0 18.452132452612204 8.593621721095133)"><path d="M-0.68 0.15 C0.59 -1.07, 2 -7.3, 7.83 -8.42 C13.66 -9.54, 29.44 -9.93, 34.28 -6.57 C39.12 -3.22, 36.8 6.44, 36.86 11.72 C36.92 17.01, 39.47 22.54, 34.64 25.12 C29.81 27.7, 13.7 28.12, 7.9 27.2 C2.1 26.28, 1.1 23.2, -0.15 19.61 C-1.39 16.02, 0.28 9.01, 0.42 5.68 C0.57 2.35, 0.85 0.63, 0.73 -0.36 M1.16 -0.81 C2.28 -2.31, 1.66 -9.52, 7.05 -10.3 C12.43 -11.08, 28.48 -8.79, 33.48 -5.49 C38.47 -2.18, 36.99 4.44, 37.01 9.52 C37.03 14.59, 38.78 22.18, 33.58 24.97 C28.39 27.76, 11.45 26.82, 5.86 26.25 C0.28 25.69, 1.09 25.12, 0.07 21.58 C-0.95 18.05, -0.15 8.34, -0.26 5.03 C-0.36 1.72, -0.66 2.71, -0.56 1.72" stroke="#000000" stroke-width="1" fill="none"></path></g></g><mask></mask><g stroke-linecap="round"><g transform="translate(1306.4330478041725 996.2775132882983) rotate(0 18.78683030463435 10.644109891534072)"><path d="M0.32 0.46 C1.2 -0.88, -1.02 -6.93, 4.62 -7.92 C10.27 -8.91, 28.65 -8.47, 34.18 -5.47 C39.71 -2.48, 37.87 4.5, 37.82 10.03 C37.78 15.57, 38.92 24.95, 33.91 27.73 C28.89 30.52, 13.16 27.77, 7.73 26.72 C2.3 25.67, 2.48 24.25, 1.33 21.43 C0.18 18.6, 1.11 13.38, 0.84 9.76 C0.58 6.15, 0.04 1.3, -0.26 -0.28 M-0.97 -0.34 C-0.19 -1.53, -2.08 -5.42, 3.64 -6.61 C9.35 -7.8, 27.51 -10.34, 33.32 -7.47 C39.13 -4.6, 38.59 4.65, 38.48 10.6 C38.37 16.54, 37.61 25.15, 32.65 28.22 C27.69 31.29, 13.77 29.8, 8.71 29 C3.66 28.2, 3.74 26.73, 2.32 23.44 C0.9 20.14, 0.32 13.44, 0.2 9.23 C0.08 5.03, 1.75 -0.27, 1.59 -1.8" stroke="#000000" stroke-width="1" fill="none"></path></g></g><mask></mask><g stroke-linecap="round"><g transform="translate(1235.7481781353154 676.2151088795684) rotate(0 -56.29272911235216 28.4823681552449)" fill-rule="evenodd"><path d="M-140.83 15.38 C-140.83 15.38, -140.83 15.38, -140.83 15.38 M-140.83 15.38 C-140.83 15.38, -140.83 15.38, -140.83 15.38 M-141.72 21.34 C-138.44 20.07, -136.15 16.28, -134.8 14.44 M-141.23 21.7 C-139.7 19.66, -137.52 17.83, -134.22 14.28 M-142.28 28.99 C-136.91 22.83, -136.36 19.24, -127.95 14.04 M-140.55 27.43 C-136.82 23.78, -134.41 19.45, -129.54 14.58 M-139.28 32.97 C-136.07 30.33, -133.75 25.57, -122.75 13.76 M-141 33.46 C-136.07 26.98, -130.14 21.58, -125.32 15.18 M-137.37 39.03 C-135.33 30, -127.96 28.28, -117.57 15.41 M-138.11 37.37 C-132.09 30.12, -126.73 23.83, -118.06 13.74 M-137.69 40.09 C-129.43 33.11, -116.9 22.11, -112.97 14.44 M-136.21 40.62 C-127.35 32.13, -119.06 21.55, -114.08 14.15 M-136.95 47.29 C-130.28 36.11, -121.15 29.67, -109.15 13.12 M-136.05 45.52 C-127.39 37.79, -120.84 28.04, -108.68 14.78 M-133.82 49.03 C-125.97 40.38, -116.2 29.2, -101.95 14.39 M-134.05 49.62 C-127.21 41.35, -119.44 32.94, -102.4 15.07 M-129.81 53.65 C-124.08 43.17, -116.3 35.32, -98.58 13.83 M-131.32 53.04 C-118.39 38.31, -105.19 23.92, -97.81 15 M-128.92 57.38 C-113.07 41.84, -99.95 23.31, -93.8 13.61 M-128.38 55.94 C-117.78 45.51, -109.04 35.02, -91.8 15.69 M-124.53 60.76 C-113.78 43.44, -101.33 27.32, -85.57 14.37 M-126.18 59.62 C-114.54 46, -103.45 33.76, -86.33 14.87 M-124.42 62.1 C-113.12 48.7, -99.51 38.52, -83.27 13.22 M-124.14 61.51 C-112.19 51.58, -102.3 39.02, -82.75 15.48 M-120.28 64.37 C-109.8 51.54, -99.04 42.12, -75.38 15.64 M-121.85 66.69 C-109.24 51.53, -96.47 38.07, -76.56 15.1 M-119.41 67.71 C-100.14 47.92, -84.35 30.56, -69.67 13.43 M-117.77 67.95 C-104.39 52.29, -91.08 37.11, -71.67 14.6 M-113.54 71.55 C-99.73 53.71, -85.54 36.19, -65.54 13.4 M-114.22 70.57 C-101.47 54.02, -87.48 39, -65.91 14.32 M-113.88 74.34 C-96.97 57.52, -81.18 39.35, -58.93 15.54 M-111.47 73.59 C-95.7 55.64, -80.93 36.15, -59.93 14.92 M-109.35 76.71 C-96.06 62.14, -81.43 47.53, -57.21 13.23 M-108.1 75.58 C-92.89 58.11, -79.09 40.38, -55.3 15.13 M-103.47 75.94 C-88.64 63.4, -78.98 45.62, -49.55 15.93 M-102.95 76.71 C-84.9 53.72, -65.87 33.4, -50.86 15.02 M-23.42 -15.35 C-23.37 -16.06, -22.39 -17.27, -19.95 -20.6 M-23.69 -15.55 C-22.67 -17.54, -20.79 -18.81, -20.24 -19.86 M-100.96 77.51 C-81.14 57.12, -65.28 36.9, -44.28 16.5 M-99.92 77.68 C-83.28 60.66, -68.11 43.06, -44.39 15.56 M-24.72 -10.13 C-20.03 -13.31, -18.98 -14.89, -13.8 -20.19 M-23.75 -9.75 C-21.54 -11.05, -20.27 -13.39, -14.85 -19.56 M-95.48 77.03 C-82.97 64.43, -70.64 51.46, -38.53 16.67 M-94.32 78.07 C-79.81 60.64, -64.22 43.53, -40.43 14.38 M-24.67 -2.47 C-19.55 -10.27, -16.97 -14.93, -11.14 -16.79 M-23.56 -4.11 C-19.42 -8.71, -15.08 -14.92, -12.04 -18.16 M-89.41 79.04 C-67.12 56.23, -47.86 32.07, -34.55 16.38 M-90.17 79.02 C-71.87 58.85, -52.84 37.42, -36.15 16.42 M-23.36 2.91 C-15.44 -6.59, -13.05 -10.99, -9.56 -16.01 M-21.9 1.48 C-18.36 -3.34, -13.69 -8.44, -8.23 -15.36 M-83.37 80.86 C-62.72 54.5, -42.52 32.31, -29.95 16.64 M-85.6 78.62 C-63.98 54.36, -42.02 27.91, -29.41 15.29 M-21.9 3.88 C-17.11 1.05, -13.05 -6.53, -4.38 -13.62 M-20.39 5.52 C-14.67 -1.78, -9.47 -8.23, -4.96 -11.65 M-82.23 82.71 C-60.87 56.17, -39.35 33.18, -22.83 14.32 M-81.84 80.93 C-58.45 56.09, -37.66 30.17, -22.93 15.1 M-17.02 9.86 C-13.06 1.44, -9.38 -2.08, -2.28 -11.09 M-18.59 7.8 C-12.28 2.62, -9.14 -2.25, -2.91 -10.01 M-75.85 79.6 C-58.37 60.43, -39.24 42.33, -0.21 -5.25 M-75 80.93 C-47.01 47.46, -20.31 15.25, -1.68 -5.99 M-70.64 79.98 C-49.18 55.08, -23.37 27.83, 0.84 -0.54 M-70.68 81.59 C-53.33 61.65, -37.36 43.88, 1.23 -0.79 M-65.31 78.26 C-47.25 59.3, -30.8 38.91, 4.86 1.63 M-65.24 80.45 C-45.95 61.47, -29.49 40.82, 2.95 3.18 M-58.2 79.17 C-44.52 63.06, -31.77 48.15, 11.93 0.7 M-58.76 80.57 C-31.65 47.43, -5.11 17.24, 11.78 -1.45 M-53.94 79.33 C-34.76 60.9, -20.69 43.09, 16.95 -1.99 M-52.82 79.29 C-37.98 59.56, -20.46 41.11, 15.83 -1.32 M-47.76 76.65 C-27.62 54.98, -9.31 32.72, 1.28 21.5 M-44.87 76.33 C-31.08 58.45, -15.17 40.93, 1.53 21.88 M2.58 23.15 C6.95 15.46, 14.09 6.62, 23.43 -2.39 M2.74 22.1 C9.06 14.22, 15.06 7.28, 22.28 -0.07 M-40.56 75.18 C-29.22 66.82, -22.83 57.41, -2.98 33.58 M-38.64 74.61 C-30.59 67.21, -24.3 57.32, -2.73 31.99 M9.27 20.2 C13.93 15.68, 17.35 11.86, 25.46 -0.89 M8.82 19.76 C13.92 15.14, 18.87 9.6, 26.08 0.86 M-27.29 66.8 C-19.03 61.16, -16.16 55.06, -5.04 43.99 M-26.46 68.03 C-19.01 57.54, -10.78 49.09, -5.41 42.15 M14.24 21.39 C16.18 15.47, 21.4 10.94, 26.66 4.17 M13 20.69 C18.2 16.05, 20.19 11.41, 29.05 3.01" stroke="#228be6" stroke-width="0.5" fill="none"></path><path d="M0.47 0.21 C-0.31 -1.41, -2.68 -7.12, -4.54 -10.37 C-6.4 -13.62, -7.93 -17.59, -10.7 -19.29 C-13.47 -20.99, -18.79 -22.31, -21.16 -20.56 C-23.52 -18.81, -24.76 -12.5, -24.91 -8.79 C-25.06 -5.08, -23.4 -1.46, -22.07 1.69 C-20.74 4.84, -16.33 7.86, -16.93 10.09 C-17.54 12.33, -20.71 14.26, -25.69 15.09 C-30.68 15.92, -39.8 15.33, -46.85 15.1 C-53.9 14.87, -55.53 13.87, -68.01 13.7 C-80.5 13.53, -109.74 13.81, -121.77 14.08 C-133.8 14.35, -136.82 13.32, -140.2 15.34 C-143.59 17.36, -142.57 20.93, -142.08 26.2 C-141.59 31.46, -140.53 40.48, -137.28 46.92 C-134.04 53.35, -127.86 60.07, -122.59 64.79 C-117.33 69.51, -112.11 72.84, -105.69 75.24 C-99.26 77.64, -92.27 78.92, -84.04 79.18 C-75.81 79.44, -65.56 78.9, -56.32 76.81 C-47.08 74.72, -35.9 71.04, -28.6 66.65 C-21.31 62.25, -16.67 56.05, -12.55 50.44 C-8.44 44.83, -6.39 37.99, -3.93 32.99 C-1.48 27.99, -0.45 22.95, 2.16 20.46 C4.76 17.97, 8.08 19.09, 11.68 18.06 C15.27 17.03, 20.85 16.53, 23.74 14.3 C26.63 12.06, 29.61 7.53, 29.01 4.67 C28.41 1.8, 23.74 -1.58, 20.13 -2.88 C16.52 -4.17, 10.84 -3.68, 7.35 -3.09 C3.86 -2.5, 0.32 0.23, -0.79 0.65 M-0.75 -0.72 C-1.17 -2.13, -0.59 -6.12, -2.33 -9.08 C-4.08 -12.03, -8.15 -16.18, -11.23 -18.45 C-14.3 -20.72, -18.34 -23.84, -20.78 -22.67 C-23.22 -21.51, -25.33 -15.38, -25.85 -11.45 C-26.37 -7.53, -25.46 -2.46, -23.89 0.89 C-22.31 4.24, -15.98 6.24, -16.4 8.63 C-16.83 11.01, -21.1 14.32, -26.44 15.19 C-31.77 16.06, -41.05 13.64, -48.4 13.84 C-55.75 14.04, -58.4 16.25, -70.52 16.4 C-82.63 16.55, -109.3 15.01, -121.08 14.75 C-132.87 14.48, -137.8 12.54, -141.21 14.82 C-144.63 17.1, -142.63 23.1, -141.57 28.43 C-140.51 33.75, -137.95 40.28, -134.83 46.76 C-131.72 53.24, -127.84 62.4, -122.88 67.32 C-117.92 72.25, -111.37 74.22, -105.07 76.31 C-98.77 78.4, -93.53 79.71, -85.08 79.87 C-76.63 80.03, -63.56 79.38, -54.35 77.28 C-45.14 75.19, -36.86 71.55, -29.83 67.31 C-22.8 63.06, -16.83 57.68, -12.15 51.81 C-7.47 45.94, -4.26 37.54, -1.75 32.09 C0.76 26.64, 0.67 21.05, 2.92 19.12 C5.17 17.19, 8.59 21.41, 11.75 20.49 C14.91 19.58, 18.75 16.26, 21.88 13.63 C25.01 11, 30.65 7.55, 30.54 4.71 C30.42 1.86, 24.89 -2.08, 21.2 -3.45 C17.51 -4.83, 11.89 -4.02, 8.39 -3.54 C4.89 -3.07, 1.4 -1.33, 0.2 -0.63" stroke="#000000" stroke-width="1" fill="none"></path></g></g><mask></mask><g stroke-linecap="round" transform="translate(1107.7734103233838 672.3788165310021) rotate(0 8.143431386341604 7.756263491586765)"><path d="M0 0 C0 0, 0 0, 0 0 M0 0 C0 0, 0 0, 0 0 M-0.06 6.85 C0.65 5.75, 1.41 4.35, 4.97 -0.21 M-0.56 6.43 C1.4 4.75, 2.94 2.84, 5.26 0.25 M0.65 12.34 C3.16 6.95, 7.69 2.48, 10.47 -0.47 M-0.43 12.62 C4.68 8.25, 8.36 3.07, 9.9 0.68 M0.84 15.98 C8.05 11.5, 12.44 5.84, 14.56 1.56 M2.12 16.66 C3.78 12.35, 7.89 7.63, 16.59 1.24 M8.31 15.27 C9.68 12.58, 14.55 7.34, 20.39 2.76 M6.37 17.38 C11.27 11.82, 14.8 7.54, 18.39 2.7 M11.53 15.97 C14.58 14.37, 15.16 12.95, 19.51 8.18 M11.65 16.39 C13.43 14.81, 15.12 12.66, 19.06 8.77" stroke="#228be6" stroke-width="0.5" fill="none"></path><path d="M-0.63 0.61 C4.28 0.47, 12.19 1.5, 17.85 1.11 M0.36 0.57 C5.66 0.19, 11.51 -0.62, 16.76 -0.41 M14.8 -1.24 C16.35 4.12, 14.86 10.26, 15.85 16.05 M16.48 0.5 C16.08 3.88, 15.71 9.37, 16.88 15.53 M16.85 15.18 C10.51 15.32, 4.91 14.48, -0.03 14.44 M16.14 14.75 C9.84 15.51, 5.28 15.74, -0.4 15.18 M1.25 16.34 C-0.38 8.47, 0.87 5.68, -0.02 0.07 M0.33 15.64 C-0.03 9.74, -0.34 5.28, 0.68 0.36" stroke="#000000" stroke-width="1" fill="none"></path></g><g stroke-linecap="round" transform="translate(1126.5897700084647 672.1465157941494) rotate(0 7.820791474045905 7.820791474045905)"><path d="M0 0 C0 0, 0 0, 0 0 M0 0 C0 0, 0 0, 0 0 M-0.49 7.11 C0.47 5.43, 2.53 2.54, 5.04 0.36 M-0.21 6.6 C1.34 4.73, 3.2 2.67, 5.13 0.72 M-0.24 10.93 C3.26 7.58, 4.98 5.79, 11.47 -1.26 M0.88 12.53 C4.34 7.64, 6.26 4.89, 11.29 0.5 M2.64 17.91 C6.49 12.98, 10.04 6.86, 14.79 2.04 M0.19 16.53 C3.56 12.52, 8.3 10.64, 16.29 0.8 M5.61 17.48 C8.28 14.64, 12.63 11.17, 15.99 5.76 M7.34 16.15 C9.3 13.7, 10.31 12.1, 15.89 5.67 M12.19 16.77 C12.31 16.27, 13.89 14.62, 15.38 12.13 M11.74 16.84 C13.03 15.31, 14.41 14.07, 15.5 12.57" stroke="#228be6" stroke-width="0.5" fill="none"></path><path d="M-1.19 0.33 C4.54 1.25, 8.38 1.01, 16.23 -0.27 M0.15 0.15 C4.88 -0.74, 9.24 -0.5, 16.14 -0.12 M15.73 -1.53 C14.08 4.36, 15.05 11.32, 15.49 14.64 M15.53 -0.63 C15.2 5.31, 16.28 9.93, 15.76 15.2 M15.03 15.42 C9.48 14.57, 5.41 14.58, 0.85 16.57 M15 15.72 C12.23 15.79, 7.39 15.18, 0.45 15.22 M-0.46 14.13 C0.67 12.55, -0.15 6.99, 0.63 0 M-0.03 15.15 C-0.41 11.88, 0.62 7.82, -0.26 -0.21" stroke="#000000" stroke-width="1" fill="none"></path></g><g stroke-linecap="round" transform="translate(1145.2770737286273 672.4046277239858) rotate(0 7.691735509127739 7.691735509127739)"><path d="M0 0 C0 0, 0 0, 0 0 M0 0 C0 0, 0 0, 0 0 M-0.93 7.09 C1.61 3.63, 3.55 2.05, 4.98 -0.24 M-0.28 6.54 C1.63 4.4, 3.11 3, 4.75 0.49 M0.77 10.5 C3.35 7.83, 7.7 3.19, 10.99 -1.17 M0.87 11.61 C3.2 8.19, 8.49 3.53, 10.97 -0.17 M1.52 18.6 C3.65 13.9, 7.53 10.19, 13.98 2.2 M0.56 16.1 C6.26 13.38, 9.89 8.41, 15.38 1.11 M5.9 17.43 C9.66 14.57, 10.88 11.7, 14.36 6.1 M7.18 16.17 C9.45 13.11, 13.27 8.68, 14.9 6.56 M11.39 17.27 C12.9 15.7, 13.11 14.71, 15.91 12.19 M11.73 16.75 C12.66 16.05, 13.22 15.21, 15.68 12.17" stroke="#228be6" stroke-width="0.5" fill="none"></path><path d="M1.08 1.29 C6.68 1.02, 10.97 -0.3, 15.09 0.68 M0.48 -0.62 C6.14 -0.42, 11.88 -0.15, 15.73 -0.74 M14 -1.02 C14.96 3.92, 15.25 5.79, 15.64 15.77 M14.91 0.35 C15.95 5.62, 15.48 10.78, 15.59 15.65 M14.34 14.36 C11.06 14.35, 7.61 16.27, -0.75 15.1 M15.89 15.68 C11.83 15.09, 9.48 14.98, -0.16 16.01 M0.78 16.63 C0.02 10.02, 0.66 4.52, -0.59 0.65 M-0.34 15.7 C0.68 10.87, -0.25 5.44, 0.16 -0.32" stroke="#000000" stroke-width="1" fill="none"></path></g><g stroke-linecap="round" transform="translate(1163.4481535891168 672.2497605660839) rotate(0 7.691735509127739 7.691735509127739)"><path d="M0 0 C0 0, 0 0, 0 0 M0 0 C0 0, 0 0, 0 0 M-0.28 5.83 C1.88 4.01, 3.87 1.06, 5.06 0.47 M0.01 6.29 C1.72 4.62, 3.19 2.27, 5.06 0.27 M-0.03 11.61 C3.35 8.13, 5.29 5.44, 11.78 1.47 M-0.6 12.75 C4.47 8.27, 7.95 3.24, 10.25 0.55 M0.13 18.16 C5.37 12.73, 9.59 7.09, 15.07 -1.67 M2.16 17.85 C5.71 13.21, 8.56 9.19, 14.95 -0.55 M7.58 16.92 C10.01 12.68, 12.17 8.65, 16.51 7.68 M6.21 16.88 C8.75 13.9, 10.49 11.61, 14.81 7.13 M12.07 16.67 C12.57 15.37, 14.2 14.16, 15.2 12.22 M11.83 16.99 C12.69 15.84, 13.98 14.16, 15.84 12.53" stroke="#228be6" stroke-width="0.5" fill="none"></path><path d="M1.48 1.05 C5.52 -0.4, 9.57 0.55, 16.46 0.3 M0.45 -0.39 C5.4 0, 10.17 -0.62, 14.77 0.04 M14.95 0.53 C15.1 2.12, 15.5 6.6, 16.38 15.17 M15.97 0.01 C15.41 2.93, 15.49 7, 15.23 15.08 M15.36 14.37 C11.83 16.19, 5.85 15, -1.44 14.12 M15 15.07 C11.06 15.02, 5.69 16.06, 0.41 15.16 M-0.02 15.45 C0.54 12.25, -0.67 9.77, 0.25 -0.06 M0.67 15.74 C-0.19 11.53, 0.23 7.78, 0.55 -0.28" stroke="#000000" stroke-width="1" fill="none"></path></g><g stroke-linecap="round" transform="translate(1181.8515341864595 672.4046277239858) rotate(0 7.691735509127739 7.691735509127739)"><path d="M0 0 C0 0, 0 0, 0 0 M0 0 C0 0, 0 0, 0 0 M-0.21 6.4 C1.76 3.51, 3.86 1.88, 5.39 0.32 M-0.12 6.76 C1.22 4.52, 3.29 2.27, 4.71 0.52 M0.97 10.82 C2.64 8.48, 5.57 8.66, 11.61 1.43 M0.79 12.58 C3.17 8.84, 5.03 6.59, 11.02 0.1 M0.36 18.64 C5.17 12.35, 11.79 2.12, 14.82 -0.92 M1.86 17.41 C3.93 13.97, 6.64 8.7, 16.29 -0.39 M6.81 16.34 C8.92 12.27, 14.21 10.22, 14.64 7.42 M6.71 16.25 C8.55 13.92, 10.55 12.1, 15.22 6.27 M11.44 16.66 C13.38 15.09, 14.11 13.47, 15.65 12.2 M11.56 17.1 C12.73 15.55, 13.88 14.78, 15.58 12.37" stroke="#228be6" stroke-width="0.5" fill="none"></path><path d="M0.58 -0.27 C5.61 0.58, 12.89 0.19, 15.68 0.96 M0.49 -0.12 C3.73 -0.66, 6.15 0.12, 14.63 -0.69 M15.24 -0.99 C15.6 3.99, 16.33 6.99, 14.14 14.43 M15.5 -0.44 C15.7 5.58, 15.35 10.33, 15.27 14.86 M16.22 16.29 C11.04 15, 6.75 14.02, 0.15 16.41 M15.83 14.97 C10.02 15.94, 5.39 15.09, -0.74 15.77 M0.62 15.38 C-0.59 10.17, 0.26 3.6, -0.97 -0.67 M-0.26 15.18 C0.02 9.81, 0.41 4.6, -0.22 -0.11" stroke="#000000" stroke-width="1" fill="none"></path></g><g stroke-linecap="round" transform="translate(1163.215852852264 654.0786807055944) rotate(0 7.820791474045905 7.820791474045905)"><path d="M0 0 C0 0, 0 0, 0 0 M0 0 C0 0, 0 0, 0 0 M-0.27 5.8 C1.01 5.12, 2.54 3.6, 5.27 0.91 M-0.5 6.53 C1.23 4.61, 2.31 3.21, 4.6 0.32 M0.49 10.91 C4.09 10.33, 6.78 7, 9.77 -1.49 M0.47 11.9 C3.73 7.86, 8.59 2.71, 11.3 -0.46 M-0.45 18.8 C5.92 8.81, 10.89 3.56, 13.97 2.27 M0.95 17.71 C6.06 9.48, 13.06 3.14, 16.31 0.9 M5.75 15.87 C11.1 14.09, 12.11 10.33, 15.23 4.63 M6.34 16.35 C9.5 13.28, 13.18 8.63, 16.46 6.27 M11.97 16.72 C12.33 15.57, 13.81 14.36, 15.46 12.4 M11.74 16.7 C13.25 15.53, 14.29 13.87, 15.53 12.4" stroke="#228be6" stroke-width="0.5" fill="none"></path><path d="M-0.3 0.69 C6.86 0.33, 11.82 1, 14.39 0.91 M0.35 -0.75 C3.28 0.07, 7.05 -0.68, 15.13 -0.22 M15.91 0.4 C16.64 5.02, 14.36 9.49, 16.36 16.84 M15.85 0.27 C15.51 4.41, 15.55 8.91, 15.12 15.63 M14.88 15.35 C10.51 14.45, 8.46 16.77, 0.59 14.87 M15.48 16.27 C12 15.32, 6.77 15.95, 0.64 15.63 M-0.6 16.3 C0.19 10.82, -1.05 5.43, 0.65 1.37 M0.16 15.32 C0.61 9.94, -0.17 4.69, -0.39 -0.3" stroke="#000000" stroke-width="1" fill="none"></path></g><g stroke-linecap="round" transform="translate(1145.7158640093494 654.9820724600221) rotate(0 7.433623579291179 7.433623579291179)"><path d="M0 0 C0 0, 0 0, 0 0 M0 0 C0 0, 0 0, 0 0 M-0.19 6.5 C1.72 4.59, 3.17 3.36, 4.77 0.64 M-0.19 6.3 C1.55 4.18, 3.49 1.63, 4.88 0.57 M1.29 13.54 C3.43 10.88, 3.94 5.26, 12.05 1.28 M-0.25 12.62 C4.33 7.76, 8.45 2.77, 11.12 -0.36 M1.29 14.18 C6.48 8.69, 10.95 5.76, 17.45 1.67 M1.17 15.3 C7.34 9.84, 12.15 5.63, 15.92 0.31 M7.98 17.49 C8.61 14.48, 11.04 9.74, 16.04 6.49 M6.28 16.94 C8.95 13.58, 11.69 11.8, 15.11 6.32 M12.01 16.02 C13.23 15.02, 13.93 14.21, 15.91 11.94 M12.55 16.28 C13.54 14.78, 14.71 13.41, 15.73 12.33" stroke="#228be6" stroke-width="0.5" fill="none"></path><path d="M1.04 0.29 C4.49 0.86, 7.21 0.8, 14.12 0.95 M-0.59 0.04 C3.49 -0.53, 7.96 -0.07, 15.12 -0.07 M15.83 -0.2 C13.69 2.58, 15.57 8.14, 14.89 15.09 M14.72 -0.29 C14.8 3.11, 14.41 7.21, 14.38 15.27 M13.47 13.64 C9.67 15.83, 4.75 14.11, -0.6 15.72 M15.26 14.65 C10.5 15.36, 8.17 14.98, 0.03 15.17 M0.24 14.81 C-0.88 9.76, 0.68 7.25, 0.69 -0.5 M0.53 14.6 C-0.24 10.7, -0.4 6.46, 0.35 -0.11" stroke="#000000" stroke-width="1" fill="none"></path></g><g stroke-linecap="round" transform="translate(1126.8995043242685 654.8530164951038) rotate(0 7.433623579291179 7.433623579291179)"><path d="M0 0 C0 0, 0 0, 0 0 M0 0 C0 0, 0 0, 0 0 M0.15 6.36 C1.2 5.58, 1.89 3.95, 5.71 -0.12 M-0.54 6.56 C1.09 4.36, 3.11 2.61, 4.68 0.45 M1.11 13.51 C1.59 7.71, 6.28 7.72, 11.7 0.65 M0.52 12.18 C3.83 8.12, 6.62 4.8, 11.32 -0.69 M1.04 14.93 C5.66 12.02, 14.56 5.18, 16.57 -0.15 M2.51 15.46 C7.84 10.88, 12.66 4.3, 15.47 -0.44 M6.11 17.23 C8.17 12.76, 11.73 11.29, 14.8 5.81 M6.69 16.08 C9.66 14.07, 11.34 10.7, 15.1 6.89 M12.38 16 C13.15 15.15, 14.44 13.68, 16.09 12.24 M12.33 16.15 C13.05 15.26, 13.99 14.31, 15.97 12.41" stroke="#228be6" stroke-width="0.5" fill="none"></path><path d="M0.29 0.92 C3.93 0.84, 9.49 0.92, 14.63 0.66 M-0.73 -0.67 C2.54 -0.22, 6.32 -0.08, 14.39 0.13 M13.66 -0.92 C15.64 5.97, 14.99 9.9, 14.02 15.26 M14.76 -0.5 C14.34 4.96, 14.35 10.36, 15.31 14.51 M15.01 15.85 C11.24 14.01, 5.89 15.6, -0.81 14.56 M14.15 15.24 C9.81 14.81, 3.58 15.12, 0 14.58 M-0.94 14.22 C0.59 11.08, 0.67 4.19, -0.4 0.31 M-0.21 14.76 C-0.48 10.74, 0.25 7.08, 0.46 0.08" stroke="#000000" stroke-width="1" fill="none"></path></g><g stroke-linecap="round" transform="translate(1162.9577409224275 635.9076008451049) rotate(0 7.820791474045905 7.820791474045905)"><path d="M0 0 C0 0, 0 0, 0 0 M0 0 C0 0, 0 0, 0 0 M0.02 6.95 C1.14 4.79, 3.72 2.14, 5.25 0.51 M-0.65 6.36 C1.12 4.92, 2.38 3.13, 4.7 0.65 M-0.73 10.58 C5.61 8.51, 9.4 3.11, 10.36 -0.8 M0.8 11.62 C4.48 7.19, 8.59 2.36, 11.38 -0.25 M-0.47 18.87 C5.98 15.04, 7.98 9.9, 17.18 -1.01 M1.87 17.51 C4.44 13.49, 7.06 9.2, 15.14 1.21 M6.05 15.2 C11.05 12.29, 13.14 7.61, 15.65 4.8 M7.27 16.84 C9.92 12.33, 13.24 9.12, 15.81 5.33 M11.52 16.93 C13.1 15.15, 14.4 14.26, 15.36 12.55 M11.59 16.93 C13.22 15.24, 14.91 13.72, 15.57 12.32" stroke="#228be6" stroke-width="0.5" fill="none"></path><path d="M-1.25 0.91 C4.21 0.9, 9.74 0.6, 14.14 -1.25 M-0.52 -0.22 C5.05 0.07, 9.05 0.27, 15.84 0.51 M16.36 1.2 C15.54 4.72, 14.62 9.37, 16.18 15.32 M15.12 -0.01 C15.11 4.5, 16.08 7.77, 15.5 14.91 M16.24 14.87 C11.6 16.64, 7.98 15.42, 1.26 16.47 M16.28 15.63 C11.45 16.04, 7.18 15.42, 0.33 15.77 M0.65 17.01 C0.83 10.48, -0.32 6.7, -0.65 1.12 M-0.39 15.34 C0.42 11.4, 0.52 7.47, -0.13 0.49" stroke="#000000" stroke-width="1" fill="none"></path></g><g stroke-linecap="round"><g transform="translate(1144.3640987573056 452.82335932530793) rotate(0 -0.4068317344950856 72.36685602712839)"><path d="M-0.39 -0.37 C-0.08 32.01, 2.39 64.19, -0.42 145.11 M0.3 0.95 C-1.67 38.74, -0.6 76.43, -1.72 143.1" stroke="#1e1e1e" stroke-width="4" fill="none"></path></g><g transform="translate(1144.3640987573056 452.82335932530793) rotate(0 -0.4068317344950856 72.36685602712839)"><path d="M9.9 27.29 C7.02 21.9, 7.36 16.36, 0.17 0.65 M10.59 28.61 C7.03 20.3, 5.49 11.89, -1.13 -1.36" stroke="#1e1e1e" stroke-width="4" fill="none"></path></g><g transform="translate(1144.3640987573056 452.82335932530793) rotate(0 -0.4068317344950856 72.36685602712839)"><path d="M-10.62 27.6 C-9 22.24, -4.16 16.63, 0.17 0.65 M-9.93 28.92 C-8 20.52, -4.03 12.03, -1.13 -1.36" stroke="#1e1e1e" stroke-width="4" fill="none"></path></g><g transform="translate(1144.3640987573056 452.82335932530793) rotate(0 -0.4068317344950856 72.36685602712839)"><path d="M-12.08 114.43 C-10.08 121.49, -5.21 128.29, -1.16 144.12 M-11.39 115.75 C-9.75 122.53, -5.75 129.2, -2.45 142.12" stroke="#1e1e1e" stroke-width="4" fill="none"></path></g><g transform="translate(1144.3640987573056 452.82335932530793) rotate(0 -0.4068317344950856 72.36685602712839)"><path d="M8.44 114.65 C5.94 121.56, 6.31 128.31, -1.16 144.12 M9.13 115.97 C5.28 122.69, 3.78 129.3, -2.45 142.12" stroke="#1e1e1e" stroke-width="4" fill="none"></path></g></g><mask></mask><g transform="translate(1242.94668804302 709.4671232762008) rotate(0 63.8399658203125 17.5)"><text x="0" y="0" font-family="Virgil, Segoe UI Emoji" font-size="28px" fill="#1e1e1e" text-anchor="start" style="white-space: pre;" direction="ltr" dominant-baseline="text-before-edge">Container</text></g><g transform="translate(964.5259291144482 801.9671232762008) rotate(0 30.98198699951172 17.5)"><text x="0" y="0" font-family="Virgil, Segoe UI Emoji" font-size="28px" fill="#1e1e1e" text-anchor="start" style="white-space: pre;" direction="ltr" dominant-baseline="text-before-edge">Host</text></g><g stroke-opacity="0" fill-opacity="0" stroke-linecap="round" transform="translate(1055.7622228897562 206.69009394883017) rotate(0 85.83122854612122 85.83122854612122)"><path d="M95.93 0.01 C107.03 0.16, 119.02 6.66, 129 12.56 C138.98 18.46, 149.09 26.19, 155.81 35.41 C162.53 44.63, 166.87 56.54, 169.31 67.87 C171.75 79.21, 172.89 92.06, 170.47 103.43 C168.04 114.79, 161.96 126.67, 154.78 136.06 C147.6 145.46, 137.4 153.97, 127.39 159.79 C117.38 165.61, 106.16 169.7, 94.72 171 C83.28 172.29, 69.85 171.3, 58.75 167.58 C47.66 163.85, 36.9 156.43, 28.15 148.64 C19.4 140.85, 10.9 131.41, 6.24 120.83 C1.59 110.25, 0 96.87, 0.24 85.16 C0.48 73.45, 3 61.05, 7.67 50.57 C12.34 40.09, 19.67 30.18, 28.28 22.28 C36.89 14.38, 46.73 6.56, 59.35 3.16 C71.98 -0.23, 94.95 1.19, 104.03 1.91 C113.11 2.63, 114.05 6.16, 113.84 7.48 M57.07 5.95 C67.09 0.9, 80.16 -0.34, 91.9 0.5 C103.65 1.34, 117.47 5.62, 127.54 11 C137.6 16.37, 145.26 23.82, 152.31 32.73 C159.36 41.63, 166.82 53.19, 169.82 64.42 C172.83 75.65, 172.42 88.4, 170.36 100.11 C168.3 111.82, 164.09 124.84, 157.45 134.68 C150.82 144.53, 140.34 152.9, 130.54 159.16 C120.75 165.42, 110.04 170.57, 98.67 172.26 C87.29 173.95, 73.83 172.98, 62.3 169.32 C50.76 165.65, 38.29 158.03, 29.45 150.26 C20.6 142.48, 13.96 133.06, 9.22 122.68 C4.48 112.29, 1.47 99.64, 0.98 87.96 C0.5 76.28, 1.83 63.46, 6.31 52.59 C10.79 41.72, 19.22 30.44, 27.85 22.74 C36.49 15.04, 53.36 9.27, 58.13 6.37 C62.9 3.48, 56.03 4.27, 56.45 5.38" stroke="#1e1e1e" stroke-width="1" fill="none"></path></g><g stroke-linecap="round" transform="translate(1092.9417798782688 217.84983384690815) rotate(0 48.30804967962922 48.30804967962922)"><path d="M34.45 2.74 C41.53 -0.07, 52.12 -0.72, 59.89 0.93 C67.65 2.59, 75.11 7.18, 81.04 12.67 C86.96 18.16, 93.1 26.16, 95.45 33.88 C97.79 41.6, 97.27 51.15, 95.1 59 C92.93 66.85, 87.86 75.07, 82.42 80.97 C76.97 86.87, 69.99 91.97, 62.41 94.4 C54.83 96.83, 44.79 97.5, 36.92 95.55 C29.04 93.6, 21.14 88.19, 15.15 82.69 C9.17 77.19, 3.27 70.19, 1.01 62.54 C-1.25 54.9, -0.46 44.73, 1.59 36.83 C3.65 28.93, 7.06 21.06, 13.35 15.15 C19.64 9.24, 34.1 3.84, 39.34 1.35 C44.57 -1.14, 44.67 -0.45, 44.74 0.2 M49.76 -0.97 C57.06 -1.06, 66.89 3.91, 73.84 8.61 C80.79 13.32, 87.74 20.2, 91.46 27.27 C95.18 34.34, 96.43 43.03, 96.16 51.03 C95.89 59.04, 94.39 68.68, 89.84 75.29 C85.29 81.9, 76.07 87.33, 68.84 90.68 C61.6 94.04, 54.22 95.93, 46.43 95.44 C38.65 94.95, 28.86 91.87, 22.13 87.75 C15.39 83.64, 9.76 77.69, 6.03 70.75 C2.29 63.81, -0.82 54.01, -0.3 46.12 C0.22 38.23, 4.6 30.03, 9.13 23.41 C13.67 16.79, 20.11 10.46, 26.91 6.4 C33.71 2.34, 45.84 0, 49.93 -0.95 C54.03 -1.9, 51.22 -0.23, 51.47 0.68" stroke="#1e1e1e" stroke-width="1" fill="none"></path></g><g stroke-linecap="round" transform="translate(1114.5687412920201 218.7901365170709) rotate(0 26.56355043210749 47.720360510777255)"><path d="M19.91 1.2 C24.53 -1.96, 30.54 -0.77, 35.5 2.52 C40.45 5.81, 46.73 13.1, 49.64 20.94 C52.55 28.78, 53.48 40.19, 52.93 49.56 C52.38 58.92, 49.5 69.77, 46.33 77.11 C43.16 84.44, 38.79 90.99, 33.9 93.56 C29.02 96.14, 21.92 95.97, 17.01 92.56 C12.1 89.15, 7.43 80.9, 4.45 73.1 C1.46 65.31, -1.2 55.07, -0.91 45.82 C-0.63 36.56, 2.13 25.12, 6.16 17.57 C10.2 10.02, 19.93 3.19, 23.3 0.53 C26.67 -2.14, 26.41 0.95, 26.38 1.57 M16.16 4.65 C20.31 -0.11, 25.11 -2.13, 29.88 -0.39 C34.64 1.34, 40.89 8.07, 44.74 15.06 C48.59 22.04, 52.13 32.37, 52.97 41.52 C53.8 50.66, 52.01 61.66, 49.75 69.93 C47.5 78.19, 44.28 87.07, 39.45 91.11 C34.62 95.15, 25.98 95.99, 20.78 94.16 C15.58 92.33, 11.65 86.86, 8.25 80.12 C4.85 73.39, 1.14 62.75, 0.38 53.76 C-0.37 44.78, 1.39 34.3, 3.71 26.23 C6.03 18.15, 12.21 8.5, 14.3 5.34 C16.4 2.18, 15.92 6.43, 16.27 7.28" stroke="#1e1e1e" stroke-width="1" fill="none"></path></g><g stroke-linecap="round"><g transform="translate(1140.8972160565863 217.61475817936764) rotate(0 0.3395619962313958 47.35395669481977)"><path d="M-0.63 -0.27 C-0.36 15.64, 0.92 80.26, 0.93 96.17 M1.24 -1.46 C1.5 14.01, 0.94 77.91, 0.48 94.18" stroke="#1e1e1e" stroke-width="1" fill="none"></path></g></g><mask></mask><g stroke-linecap="round"><g transform="translate(1099.28882290187 241.59247626852687) rotate(0 40.86654724225252 -0.1280813783114354)"><path d="M0.93 0.26 C14.67 0.19, 68.34 -0.82, 81.77 -0.71 M-0.03 -0.65 C13.55 -0.56, 66.55 0.5, 80.55 0.46" stroke="#1e1e1e" stroke-width="1" fill="none"></path></g></g><mask></mask><g stroke-linecap="round"><g transform="translate(1100.5780955468394 291.2262805297479) rotate(0 41.63837634622905 0.41451660339714635)"><path d="M-0.51 -0.71 C12.92 -0.59, 67.85 0.87, 81.49 0.96 M1.42 1.54 C15.15 1.31, 70.07 -0.58, 83.79 -0.67" stroke="#1e1e1e" stroke-width="1" fill="none"></path></g></g><mask></mask><g stroke-linecap="round"><g transform="translate(1093.1785667355114 267.12630838758434) rotate(0 48.18871286079002 0.5319211722272712)"><path d="M-0.79 0.96 C15.12 1.04, 78.97 0.14, 94.95 -0.19 M1 0.41 C17.32 0.75, 81.07 1.36, 97.17 1.24" stroke="#1e1e1e" stroke-width="1" fill="none"></path></g></g><mask></mask><g transform="translate(1079.99610783701 318.84007082991354) rotate(0 60.75507354736328 18.378125290223238)"><text x="60.75507354736328" y="0" font-family="Virgil, Segoe UI Emoji" font-size="29.40500046435713px" fill="#1e1e1e" text-anchor="middle" style="white-space: pre;" direction="ltr" dominant-baseline="text-before-edge">Internet</text></g><g stroke-linecap="round"><g transform="translate(1155.2736969715913 760.3979966020937) rotate(0 1.7346054839352973 41.842350520526224)"><path d="M1.45 0.73 C1.35 24.22, 0.5 48.53, 1.06 83.71 M0.38 -0.02 C0.23 17.34, 1.4 36.4, 3.1 83.48" stroke="#e03131" stroke-width="2" fill="none"></path></g><g transform="translate(1155.2736969715913 760.3979966020937) rotate(0 1.7346054839352973 41.842350520526224)"><path d="M12.86 29.75 C10.12 19.88, 5.62 10.95, 0.21 0.6 M11.79 29 C8.88 21.94, 7.37 16.48, 2.24 0.37" stroke="#e03131" stroke-width="2" fill="none"></path></g><g transform="translate(1155.2736969715913 760.3979966020937) rotate(0 1.7346054839352973 41.842350520526224)"><path d="M-7.66 29.53 C-4.32 19.92, -2.73 11.05, 0.21 0.6 M-8.73 28.78 C-7.15 21.61, -4.18 16.19, 2.24 0.37" stroke="#e03131" stroke-width="2" fill="none"></path></g><g transform="translate(1155.2736969715913 760.3979966020937) rotate(0 1.7346054839352973 41.842350520526224)"><path d="M-6.79 56.43 C-3.71 63.39, -1.89 71.08, 1.86 83.35 M-7.85 55.68 C-6.07 60.71, -2.93 67.52, 3.9 83.12" stroke="#e03131" stroke-width="2" fill="none"></path></g><g transform="translate(1155.2736969715913 760.3979966020937) rotate(0 1.7346054839352973 41.842350520526224)"><path d="M13.72 55.64 C10.71 62.64, 6.45 70.56, 1.86 83.35 M12.65 54.89 C9.95 60.26, 8.61 67.24, 3.9 83.12" stroke="#e03131" stroke-width="2" fill="none"></path></g></g><mask></mask><g stroke-linecap="round"><g transform="translate(416.4678934001628 205.4482198163795) rotate(0 340.7681008892617 259.5478660720803)"><path d="M-0.38 -0.5 C94.17 1.14, 186.36 2.24, 281.44 2.63 M-0.69 0.32 C57.11 -0.49, 113.81 -0.42, 281 1.79 M281.2 2.26 C280.03 141.52, 281.38 280.96, 281.31 518.94 M281.47 1.23 C280.91 175.87, 280.87 350.09, 281.52 519.55 M281.32 518.05 C321.36 519.07, 360.85 516.8, 385.36 518.51 M282.23 518.62 C319.89 517.1, 359.23 516.65, 386.27 517.48 M385.95 515.35 C457.88 515.16, 528.04 513.97, 682.23 519.59 M386.12 516.97 C480.73 515.07, 575.08 516.32, 682.03 517.74" stroke="#e03131" stroke-width="2" fill="none"></path></g><g transform="translate(416.4678934001628 205.4482198163795) rotate(0 340.7681008892617 259.5478660720803)"><path d="M27.46 -11.03 C20 -7.67, 9.45 -3.63, -0.63 0.94 M27.05 -9.96 C22.5 -7.21, 16.51 -5.53, -1.21 -0.16" stroke="#e03131" stroke-width="2" fill="none"></path></g><g transform="translate(416.4678934001628 205.4482198163795) rotate(0 340.7681008892617 259.5478660720803)"><path d="M27.19 9.49 C19.75 6.06, 9.28 3.33, -0.63 0.94 M26.78 10.56 C22.23 9.16, 16.29 6.69, -1.21 -0.16" stroke="#e03131" stroke-width="2" fill="none"></path></g><g transform="translate(416.4678934001628 205.4482198163795) rotate(0 340.7681008892617 259.5478660720803)"><path d="M653.22 527 C664.42 524.07, 672.59 521.57, 681.78 519.17 M652.81 528.08 C659.66 526.42, 665.11 524.1, 681.2 518.07" stroke="#e03131" stroke-width="2" fill="none"></path></g><g transform="translate(416.4678934001628 205.4482198163795) rotate(0 340.7681008892617 259.5478660720803)"><path d="M653.48 506.48 C664.67 510.33, 672.75 514.62, 681.78 519.17 M653.07 507.56 C659.92 510.05, 665.32 511.87, 681.2 518.07" stroke="#e03131" stroke-width="2" fill="none"></path></g></g><mask></mask><g stroke-linecap="round" transform="translate(524.1883636435713 71.65397186782434) rotate(0 26.05743154230578 32.00000000000006)"><path d="M17.33 1.29 C22.33 -1.36, 30.83 -1.45, 36.09 1.09 C41.35 3.63, 46.25 10.46, 48.89 16.53 C51.52 22.6, 53.04 30.71, 51.91 37.5 C50.78 44.3, 46.54 52.82, 42.11 57.3 C37.67 61.78, 30.89 64.49, 25.3 64.39 C19.72 64.28, 12.8 61.04, 8.6 56.67 C4.4 52.3, 0.92 45.03, 0.1 38.16 C-0.71 31.29, 0.06 21.64, 3.71 15.44 C7.35 9.24, 17.72 3.32, 21.97 0.96 C26.22 -1.4, 29.06 0.7, 29.2 1.25 M16.82 2.24 C21.79 -0.42, 29.2 -0.94, 34.37 1.47 C39.54 3.88, 44.9 10.5, 47.83 16.7 C50.76 22.9, 52.92 32.23, 51.94 38.65 C50.95 45.07, 46.18 50.94, 41.92 55.22 C37.66 59.51, 31.87 63.94, 26.37 64.38 C20.88 64.83, 13.37 62.43, 8.97 57.89 C4.56 53.35, 1.09 44.27, -0.06 37.14 C-1.21 30.02, -0.92 20.91, 2.05 15.14 C5.03 9.37, 15.47 4.84, 17.76 2.51 C20.06 0.18, 15.63 0.98, 15.84 1.16" stroke="#1e1e1e" stroke-width="1" fill="none"></path></g><g transform="translate(546.5264099237468 86.02655486985486) rotate(0 3.7939987182617188 17.5)"><text x="3.7939987182617188" y="0" font-family="Virgil, Segoe UI Emoji" font-size="28px" fill="#1e1e1e" text-anchor="middle" style="white-space: pre;" direction="ltr" dominant-baseline="text-before-edge">1</text></g><g stroke-linecap="round" transform="translate(1174.551086857857 486.0005356645944) rotate(0 26.05743154230572 32)"><path d="M16.07 1.99 C20.88 -0.68, 29.88 -0.84, 35.33 1.43 C40.79 3.69, 45.91 9.58, 48.81 15.57 C51.71 21.56, 53.67 30.71, 52.74 37.36 C51.81 44.01, 47.8 50.85, 43.22 55.45 C38.65 60.05, 30.76 64.75, 25.3 64.97 C19.84 65.2, 14.45 61.41, 10.47 56.82 C6.49 52.23, 2.54 44.19, 1.41 37.42 C0.29 30.66, 0.8 22.36, 3.75 16.24 C6.7 10.12, 16.16 3.26, 19.12 0.69 C22.08 -1.88, 21.24 0.16, 21.51 0.82 M18.47 2.42 C23.49 0.14, 31.07 -0.02, 36.41 2.53 C41.74 5.09, 48.2 11.7, 50.5 17.78 C52.8 23.86, 51.49 32.57, 50.2 39 C48.9 45.43, 46.9 52.07, 42.74 56.34 C38.58 60.62, 31.26 64.95, 25.26 64.63 C19.26 64.31, 10.97 59.37, 6.76 54.45 C2.54 49.53, 0.61 41.88, -0.01 35.13 C-0.62 28.38, 0.18 19.57, 3.06 13.95 C5.94 8.32, 14.69 3.4, 17.29 1.4 C19.89 -0.6, 18.07 1.33, 18.65 1.96" stroke="#1e1e1e" stroke-width="1" fill="none"></path></g><g transform="translate(1190.7151371663526 500.3731186666249) rotate(0 9.967994689941406 17.5)"><text x="9.967994689941406" y="0" font-family="Virgil, Segoe UI Emoji" font-size="28px" fill="#1e1e1e" text-anchor="middle" style="white-space: pre;" direction="ltr" dominant-baseline="text-before-edge">2</text></g><g stroke-linecap="round" transform="translate(711.4316672149996 508.07084816459417) rotate(0 26.05743154230572 32)"><path d="M37.3 2.56 C42.08 5.12, 46.67 12.99, 48.86 19.47 C51.05 25.95, 51.97 34.9, 50.46 41.45 C48.95 48.01, 44.25 55, 39.8 58.78 C35.35 62.56, 29.31 64.83, 23.75 64.14 C18.2 63.45, 10.26 59.66, 6.45 54.64 C2.65 49.62, 1.34 41.01, 0.93 34.01 C0.52 27.02, 0.81 18.27, 4.01 12.65 C7.2 7.04, 13.73 1.09, 20.11 0.32 C26.49 -0.44, 37.9 5.86, 42.27 8.06 C46.64 10.25, 46.56 13.19, 46.33 13.47 M26.88 -0.69 C32.39 -0.96, 39.33 2.99, 43.48 7.81 C47.64 12.64, 51.02 21.28, 51.82 28.27 C52.63 35.25, 51.18 43.81, 48.31 49.72 C45.45 55.64, 40.09 61.91, 34.61 63.75 C29.13 65.59, 20.93 63.54, 15.44 60.75 C9.95 57.97, 4.39 53.11, 1.66 47.04 C-1.07 40.96, -2.09 31.05, -0.96 24.29 C0.18 17.54, 3.8 10.43, 8.46 6.53 C13.12 2.64, 23.82 1.78, 26.98 0.93 C30.15 0.08, 27.35 0.94, 27.47 1.44" stroke="#1e1e1e" stroke-width="1" fill="none"></path></g><g transform="translate(728.0297156314055 522.4434311666247) rotate(0 9.53399658203125 17.5)"><text x="9.53399658203125" y="0" font-family="Virgil, Segoe UI Emoji" font-size="28px" fill="#1e1e1e" text-anchor="middle" style="white-space: pre;" direction="ltr" dominant-baseline="text-before-edge">3</text></g><g stroke-linecap="round" transform="translate(1184.7017565007138 765.1579017360233) rotate(0 26.05743154230572 32)"><path d="M14.86 3.45 C19.49 0.62, 28.28 0.23, 33.63 1.99 C38.99 3.76, 43.95 8.37, 47 14.04 C50.04 19.71, 52.35 29.34, 51.92 36.02 C51.49 42.71, 48.47 49.58, 44.43 54.16 C40.38 58.75, 33.35 62.93, 27.66 63.53 C21.97 64.13, 14.89 61.77, 10.27 57.76 C5.65 53.74, 1.36 46.02, -0.06 39.42 C-1.48 32.81, -1.52 24.52, 1.76 18.14 C5.03 11.76, 15.63 4.01, 19.59 1.13 C23.56 -1.75, 25.41 0.45, 25.52 0.87 M32.14 0.77 C37.48 2.49, 44.43 9.46, 47.71 15.24 C50.98 21.03, 52.49 28.94, 51.79 35.51 C51.1 42.08, 47.79 49.81, 43.53 54.67 C39.27 59.52, 31.7 63.89, 26.24 64.62 C20.78 65.34, 15.07 63.41, 10.8 59.02 C6.52 54.63, 2.07 44.97, 0.61 38.27 C-0.85 31.56, -0.66 24.81, 2.04 18.78 C4.75 12.75, 11.72 4.93, 16.84 2.09 C21.96 -0.75, 29.97 1.99, 32.76 1.76 C35.54 1.52, 33.35 0.18, 33.57 0.68" stroke="#1e1e1e" stroke-width="1" fill="none"></path></g><g transform="translate(1201.8738024146783 779.5304847380538) rotate(0 8.959999084472656 17.5)"><text x="8.959999084472656" y="0" font-family="Virgil, Segoe UI Emoji" font-size="28px" fill="#1e1e1e" text-anchor="middle" style="white-space: pre;" direction="ltr" dominant-baseline="text-before-edge">4</text></g><g transform="translate(11.556955230981885 886.2288829232758) rotate(0 305.3818359375 17.5)"><text x="0" y="0" font-family="Virgil, Segoe UI Emoji" font-size="28px" fill="#1e1e1e" text-anchor="start" style="white-space: pre;" direction="ltr" dominant-baseline="text-before-edge">Step 1: Identifying Vulnerabilities at the app</text></g><g transform="translate(10 933.9969235553414) rotate(0 245.48989868164062 17.5)"><text x="0" y="0" font-family="Virgil, Segoe UI Emoji" font-size="28px" fill="#1e1e1e" text-anchor="start" style="white-space: pre;" direction="ltr" dominant-baseline="text-before-edge">Step 2: Attempting a Reverse Shell</text></g><g transform="translate(12.715853946599623 980.0215774239124) rotate(0 345.6598205566407 17.5)"><text x="0" y="0" font-family="Virgil, Segoe UI Emoji" font-size="28px" fill="#1e1e1e" text-anchor="start" style="white-space: pre;" direction="ltr" dominant-baseline="text-before-edge">Step 3: Executing Commands within the Container </text></g><g transform="translate(11.330214177925882 1023.6893866657307) rotate(0 293.07586669921875 17.5)"><text x="0" y="0" font-family="Virgil, Segoe UI Emoji" font-size="28px" fill="#1e1e1e" text-anchor="start" style="white-space: pre;" direction="ltr" dominant-baseline="text-before-edge">Step 4: Escaping the Container via socket</text></g></svg>